<?xml version="1.0" standalone="no"?>
<!DOCTYPE svg PUBLIC "-//W3C//DTD SVG 20010904//EN"
 "http://www.w3.org/TR/2001/REC-SVG-20010904/DTD/svg10.dtd">
<svg version="1.0" xmlns="http://www.w3.org/2000/svg"
 width="143.000000pt" height="143.000000pt" viewBox="0 0 143.000000 143.000000"
 preserveAspectRatio="xMidYMid meet">

<g transform="translate(0.000000,143.000000) scale(0.100000,-0.100000)"
fill="#000000" stroke="none">
<path d="M10 1210 l0 -210 705 0 705 0 0 210 0 210 -705 0 -705 0 0 -210z"/>
<path d="M12 578 c3 -318 3 -324 27 -368 39 -76 86 -125 153 -161 l63 -34 441
-3 c428 -3 443 -2 498 18 74 28 157 104 193 178 l28 57 3 318 3 317 -235 0
-236 0 0 -270 0 -270 -235 0 -235 0 0 270 0 270 -236 0 -235 0 3 -322z"/>
</g>
</svg>
